<mxfile host="app.diagrams.net" modified="2024-04-17T12:18:49.711Z" agent="Mozilla/5.0 (Windows NT 10.0; Win64; x64) AppleWebKit/537.36 (KHTML, like Gecko) Chrome/122.0.0.0 Whale/3.25.232.19 Safari/537.36" etag="mr8RZ6YSInosrs0CB9MO" version="24.2.5" type="github">
  <diagram name="페이지-1" id="dhtC6vJEmux-9dx_Erj-">
    <mxGraphModel dx="1050" dy="581" grid="1" gridSize="10" guides="1" tooltips="1" connect="1" arrows="1" fold="1" page="1" pageScale="1" pageWidth="827" pageHeight="1169" math="0" shadow="0">
      <root>
        <mxCell id="0" />
        <mxCell id="1" parent="0" />
        <mxCell id="p15YK9Fx9_j3OTOKK8XK-1" value="&lt;p style=&quot;margin:0px;margin-top:4px;margin-left:5px;text-align:left;&quot;&gt;&lt;b&gt;&amp;nbsp; &amp;nbsp; &amp;nbsp; &amp;nbsp; &amp;nbsp;alt&lt;/b&gt;&lt;/p&gt;" style="html=1;shape=mxgraph.sysml.package;overflow=fill;labelX=95;align=left;spacingLeft=5;verticalAlign=top;spacingTop=-3;" vertex="1" parent="1">
          <mxGeometry x="110" y="830" width="360" height="140" as="geometry" />
        </mxCell>
        <mxCell id="p15YK9Fx9_j3OTOKK8XK-5" value="Customer" style="html=1;whiteSpace=wrap;" vertex="1" parent="1">
          <mxGeometry x="80" y="440" width="110" height="50" as="geometry" />
        </mxCell>
        <mxCell id="p15YK9Fx9_j3OTOKK8XK-6" value="Delivery" style="html=1;whiteSpace=wrap;" vertex="1" parent="1">
          <mxGeometry x="560" y="440" width="110" height="50" as="geometry" />
        </mxCell>
        <mxCell id="p15YK9Fx9_j3OTOKK8XK-7" value="OdrderUI" style="html=1;whiteSpace=wrap;" vertex="1" parent="1">
          <mxGeometry x="240" y="440" width="110" height="50" as="geometry" />
        </mxCell>
        <mxCell id="p15YK9Fx9_j3OTOKK8XK-8" value="Order" style="html=1;whiteSpace=wrap;" vertex="1" parent="1">
          <mxGeometry x="400" y="440" width="110" height="50" as="geometry" />
        </mxCell>
        <mxCell id="p15YK9Fx9_j3OTOKK8XK-9" value="" style="endArrow=none;dashed=1;html=1;rounded=0;entryX=0.5;entryY=1;entryDx=0;entryDy=0;" edge="1" parent="1">
          <mxGeometry width="50" height="50" relative="1" as="geometry">
            <mxPoint x="135" y="1000" as="sourcePoint" />
            <mxPoint x="134.5" y="490" as="targetPoint" />
          </mxGeometry>
        </mxCell>
        <mxCell id="p15YK9Fx9_j3OTOKK8XK-10" value="" style="endArrow=none;dashed=1;html=1;rounded=0;entryX=0.5;entryY=1;entryDx=0;entryDy=0;" edge="1" parent="1" source="p15YK9Fx9_j3OTOKK8XK-15">
          <mxGeometry width="50" height="50" relative="1" as="geometry">
            <mxPoint x="294.5" y="880" as="sourcePoint" />
            <mxPoint x="294.5" y="490" as="targetPoint" />
          </mxGeometry>
        </mxCell>
        <mxCell id="p15YK9Fx9_j3OTOKK8XK-11" value="" style="endArrow=none;dashed=1;html=1;rounded=0;entryX=0.5;entryY=1;entryDx=0;entryDy=0;" edge="1" parent="1" source="p15YK9Fx9_j3OTOKK8XK-20">
          <mxGeometry width="50" height="50" relative="1" as="geometry">
            <mxPoint x="454.5" y="880" as="sourcePoint" />
            <mxPoint x="454.5" y="490" as="targetPoint" />
          </mxGeometry>
        </mxCell>
        <mxCell id="p15YK9Fx9_j3OTOKK8XK-12" value="" style="endArrow=none;dashed=1;html=1;rounded=0;entryX=0.5;entryY=1;entryDx=0;entryDy=0;" edge="1" parent="1" source="p15YK9Fx9_j3OTOKK8XK-25">
          <mxGeometry width="50" height="50" relative="1" as="geometry">
            <mxPoint x="614.5" y="880" as="sourcePoint" />
            <mxPoint x="614.5" y="490" as="targetPoint" />
          </mxGeometry>
        </mxCell>
        <mxCell id="p15YK9Fx9_j3OTOKK8XK-14" value="" style="html=1;points=[[0,0,0,0,5],[0,1,0,0,-5],[1,0,0,0,5],[1,1,0,0,-5]];perimeter=orthogonalPerimeter;outlineConnect=0;targetShapes=umlLifeline;portConstraint=eastwest;newEdgeStyle={&quot;curved&quot;:0,&quot;rounded&quot;:0};" vertex="1" parent="1">
          <mxGeometry x="130" y="540" width="10" height="120" as="geometry" />
        </mxCell>
        <mxCell id="p15YK9Fx9_j3OTOKK8XK-16" value="" style="endArrow=none;dashed=1;html=1;rounded=0;entryX=0.5;entryY=1;entryDx=0;entryDy=0;" edge="1" parent="1" target="p15YK9Fx9_j3OTOKK8XK-15">
          <mxGeometry width="50" height="50" relative="1" as="geometry">
            <mxPoint x="295" y="1000" as="sourcePoint" />
            <mxPoint x="294.5" y="490" as="targetPoint" />
          </mxGeometry>
        </mxCell>
        <mxCell id="p15YK9Fx9_j3OTOKK8XK-15" value="" style="html=1;points=[[0,0,0,0,5],[0,1,0,0,-5],[1,0,0,0,5],[1,1,0,0,-5]];perimeter=orthogonalPerimeter;outlineConnect=0;targetShapes=umlLifeline;portConstraint=eastwest;newEdgeStyle={&quot;curved&quot;:0,&quot;rounded&quot;:0};" vertex="1" parent="1">
          <mxGeometry x="290" y="540" width="10" height="190" as="geometry" />
        </mxCell>
        <mxCell id="p15YK9Fx9_j3OTOKK8XK-17" value="" style="html=1;points=[[0,0,0,0,5],[0,1,0,0,-5],[1,0,0,0,5],[1,1,0,0,-5]];perimeter=orthogonalPerimeter;outlineConnect=0;targetShapes=umlLifeline;portConstraint=eastwest;newEdgeStyle={&quot;curved&quot;:0,&quot;rounded&quot;:0};" vertex="1" parent="1">
          <mxGeometry x="283" y="545" width="10" height="80" as="geometry" />
        </mxCell>
        <mxCell id="p15YK9Fx9_j3OTOKK8XK-18" value="" style="html=1;points=[[0,0,0,0,5],[0,1,0,0,-5],[1,0,0,0,5],[1,1,0,0,-5]];perimeter=orthogonalPerimeter;outlineConnect=0;targetShapes=umlLifeline;portConstraint=eastwest;newEdgeStyle={&quot;curved&quot;:0,&quot;rounded&quot;:0};" vertex="1" parent="1">
          <mxGeometry x="283" y="640" width="10" height="70" as="geometry" />
        </mxCell>
        <mxCell id="p15YK9Fx9_j3OTOKK8XK-24" value="" style="endArrow=none;dashed=1;html=1;rounded=0;entryX=0.5;entryY=1;entryDx=0;entryDy=0;" edge="1" parent="1" target="p15YK9Fx9_j3OTOKK8XK-20">
          <mxGeometry width="50" height="50" relative="1" as="geometry">
            <mxPoint x="455" y="1000" as="sourcePoint" />
            <mxPoint x="454.5" y="490" as="targetPoint" />
          </mxGeometry>
        </mxCell>
        <mxCell id="p15YK9Fx9_j3OTOKK8XK-20" value="" style="html=1;points=[[0,0,0,0,5],[0,1,0,0,-5],[1,0,0,0,5],[1,1,0,0,-5]];perimeter=orthogonalPerimeter;outlineConnect=0;targetShapes=umlLifeline;portConstraint=eastwest;newEdgeStyle={&quot;curved&quot;:0,&quot;rounded&quot;:0};" vertex="1" parent="1">
          <mxGeometry x="450" y="680" width="10" height="70" as="geometry" />
        </mxCell>
        <mxCell id="p15YK9Fx9_j3OTOKK8XK-26" value="" style="endArrow=none;dashed=1;html=1;rounded=0;entryX=0.5;entryY=1;entryDx=0;entryDy=0;" edge="1" parent="1" target="p15YK9Fx9_j3OTOKK8XK-25">
          <mxGeometry width="50" height="50" relative="1" as="geometry">
            <mxPoint x="615" y="1000" as="sourcePoint" />
            <mxPoint x="614.5" y="490" as="targetPoint" />
          </mxGeometry>
        </mxCell>
        <mxCell id="p15YK9Fx9_j3OTOKK8XK-25" value="" style="html=1;points=[[0,0,0,0,5],[0,1,0,0,-5],[1,0,0,0,5],[1,1,0,0,-5]];perimeter=orthogonalPerimeter;outlineConnect=0;targetShapes=umlLifeline;portConstraint=eastwest;newEdgeStyle={&quot;curved&quot;:0,&quot;rounded&quot;:0};" vertex="1" parent="1">
          <mxGeometry x="610" y="700" width="10" height="70" as="geometry" />
        </mxCell>
        <mxCell id="p15YK9Fx9_j3OTOKK8XK-27" style="rounded=0;orthogonalLoop=1;jettySize=auto;html=1;entryX=0;entryY=0;entryDx=0;entryDy=5;entryPerimeter=0;" edge="1" parent="1">
          <mxGeometry relative="1" as="geometry">
            <mxPoint x="140" y="640" as="sourcePoint" />
            <mxPoint x="283" y="640" as="targetPoint" />
            <Array as="points" />
          </mxGeometry>
        </mxCell>
        <mxCell id="p15YK9Fx9_j3OTOKK8XK-28" value="구매 버튼 클릭" style="text;html=1;align=center;verticalAlign=middle;resizable=0;points=[];autosize=1;strokeColor=none;fillColor=none;" vertex="1" parent="1">
          <mxGeometry x="130" y="595" width="100" height="30" as="geometry" />
        </mxCell>
      </root>
    </mxGraphModel>
  </diagram>
</mxfile>
